<svg width="34" height="24" viewBox="0 0 34 24" fill="none" xmlns="http://www.w3.org/2000/svg">
<path d="M0 4C0 1.79086 1.79086 0 4 0H30C32.2091 0 34 1.79086 34 4V20C34 22.2091 32.2091 24 30 24H4C1.79086 24 0 22.2091 0 20V4Z" fill="white"/>
<path d="M4 1H30V-1H4V1ZM33 4V20H35V4H33ZM30 23H4V25H30V23ZM1 20V4H-1V20H1ZM4 23C2.34315 23 1 21.6569 1 20H-1C-1 22.7614 1.23858 25 4 25V23ZM33 20C33 21.6569 31.6569 23 30 23V25C32.7614 25 35 22.7614 35 20H33ZM30 1C31.6569 1 33 2.34315 33 4H35C35 1.23858 32.7614 -1 30 -1V1ZM4 -1C1.23858 -1 -1 1.23858 -1 4H1C1 2.34315 2.34315 1 4 1V-1Z" fill="#EAEAEA"/>
<path fill-rule="evenodd" clip-rule="evenodd" d="M24.951 18.6209C24.951 18.9731 24.8111 19.3109 24.562 19.5599C24.313 19.809 23.9752 19.9489 23.623 19.9489H10.3295C10.155 19.9491 9.98213 19.9149 9.82084 19.8482C9.65954 19.7816 9.51297 19.6838 9.38949 19.5604C9.26602 19.4371 9.16806 19.2906 9.10123 19.1294C9.0344 18.9682 9 18.7954 9 18.6209V5.32799C9 5.15347 9.0344 4.98066 9.10123 4.81944C9.16806 4.65823 9.26602 4.51176 9.38949 4.38843C9.51297 4.26509 9.65954 4.1673 9.82084 4.10065C9.98213 4.03401 10.155 3.9998 10.3295 4H23.6221C23.9743 4 24.3121 4.13991 24.5611 4.38896C24.8102 4.63801 24.9501 4.97579 24.9501 5.32799L24.951 18.6209Z" fill="#EDAA00"/>
<path d="M17.9063 12.1466V9.29053L18.6521 9.11397V9.48792C18.6521 9.48792 18.845 8.99566 19.2929 8.88127C19.4308 8.84656 19.5002 8.86738 19.5002 8.86738V9.59597C19.366 9.5978 19.2334 9.62547 19.1097 9.67746C18.8332 9.78641 18.6944 10.0248 18.6944 10.387V11.964L17.9063 12.1466ZM13.9764 13.0753C13.9764 13.0753 13.8556 12.8942 13.8556 12.2507V10.8289L13.4717 10.9194V10.3342L13.8559 10.2437V9.60502L14.6488 9.4179V10.055L15.209 9.92223V10.5078L14.6488 10.6409V12.0896C14.6488 12.7478 14.8236 12.8743 14.8236 12.8743L13.9764 13.0753ZM15.2917 11.3764C15.2917 10.8684 15.3641 10.4981 15.5193 10.2138C15.7037 9.87636 16.007 9.65663 16.4482 9.55613C17.3178 9.35844 17.6314 9.87334 17.619 10.5633C17.6151 10.8099 17.616 10.9303 17.616 10.9303L16.084 11.2904V11.3151C16.084 11.798 16.1854 12.0265 16.4908 11.9613C16.7546 11.9058 16.8279 11.7404 16.8488 11.5363C16.8524 11.5028 16.8536 11.4192 16.8536 11.4192L17.5716 11.2472C17.5716 11.2472 17.5734 11.3061 17.5716 11.3716C17.565 11.6459 17.4853 12.3262 16.4878 12.5616C15.5431 12.7859 15.2908 12.2088 15.2908 11.3764H15.2917ZM16.479 10.0879C16.2252 10.1456 16.0921 10.3946 16.0867 10.8072L16.8575 10.6237C16.859 10.6049 16.859 10.5633 16.859 10.4993C16.8575 10.1881 16.7612 10.0239 16.4793 10.0879H16.479ZM22.1821 9.70613C22.152 8.8363 22.3777 8.14574 23.3481 7.92542C23.9674 7.78477 24.2019 7.94534 24.3208 8.10077C24.4352 8.24927 24.4793 8.44937 24.4793 8.72976V8.78167L23.7193 8.96276V8.85682C23.7193 8.52482 23.6288 8.39806 23.3873 8.45842C23.1003 8.53056 22.9844 8.8028 22.9844 9.34486V9.59748C22.9844 10.1483 23.0598 10.4006 23.3903 10.3312C23.6776 10.2708 23.7169 10.0197 23.7223 9.79879C23.7223 9.76408 23.7244 9.65301 23.7244 9.65301L24.4832 9.47434V9.59235C24.4811 10.3143 24.1005 10.7694 23.387 10.9354C22.4052 11.166 22.2126 10.5977 22.1824 9.70613H22.1821ZM19.5573 10.9237C19.5573 10.2621 19.9454 10.0529 20.5288 9.81177C21.0531 9.59476 21.0642 9.48701 21.0666 9.29868C21.0694 9.14023 20.996 9.00411 20.7346 9.07081C20.4947 9.13117 20.431 9.30562 20.4183 9.44446C20.4139 9.49322 20.4123 9.54219 20.4135 9.59114L19.678 9.76468C19.673 9.61809 19.6901 9.47159 19.7287 9.33007C19.8464 8.93439 20.1956 8.66819 20.7974 8.52905C21.5797 8.34796 21.8408 8.69203 21.842 9.22624V10.4912C21.842 11.1029 21.9555 11.1923 21.9555 11.1923L21.2332 11.3634C21.1933 11.2799 21.1608 11.193 21.1361 11.1038C21.1361 11.1038 20.9782 11.5019 20.4331 11.6305C19.8597 11.7651 19.5579 11.4108 19.5579 10.924L19.5573 10.9237ZM21.0624 10.0206C20.9406 10.106 20.812 10.1812 20.6779 10.2455C20.4364 10.3635 20.3281 10.5084 20.3281 10.7317C20.3281 10.9252 20.4488 11.0525 20.6661 10.9982C20.9 10.9397 21.0624 10.7214 21.0624 10.4187V10.0206ZM9.83183 15.0773C9.74941 15.0771 9.66855 15.0547 9.59778 15.0124C9.52701 14.9702 9.46894 14.9097 9.42967 14.8372C9.39041 14.7647 9.37141 14.683 9.37468 14.6006C9.37794 14.5183 9.40335 14.4383 9.44822 14.3692L9.45305 14.3629L9.4618 14.3607L10.5393 14.1063V14.9251L10.5224 14.9291C10.2779 14.9879 9.98575 15.0546 9.92539 15.067C9.89448 15.0739 9.8629 15.0774 9.83122 15.0773H9.83183ZM9.83183 16.1249C9.71074 16.1249 9.59459 16.0769 9.50882 15.9914C9.42306 15.9059 9.37467 15.7899 9.37427 15.6688C9.37379 15.5804 9.39952 15.4939 9.44822 15.4201L9.45305 15.412L9.4618 15.4102L10.5393 15.1557V15.9746L10.5224 15.9791C10.2779 16.0376 9.98575 16.1055 9.92539 16.1173C9.89437 16.1234 9.86283 16.1264 9.83122 16.1264L9.83183 16.1249ZM9.83183 17.1743C9.71045 17.1742 9.59407 17.1259 9.50827 17.0401C9.42247 16.9542 9.37427 16.8378 9.37427 16.7164C9.37379 16.628 9.39952 16.5415 9.44822 16.4677L9.45305 16.4593L10.5396 16.2033V17.0222L10.5227 17.0264C10.2646 17.0886 9.9776 17.1534 9.92569 17.1652C9.89465 17.1711 9.86313 17.1742 9.83153 17.1743" fill="#231F20"/>
<path d="M9.70514 14.0738L9.70483 9.49255L10.54 9.29517V13.8761L9.70514 14.0738Z" fill="#231F20"/>
<path d="M11.7856 13.684C11.7823 13.5494 11.7266 13.4215 11.6303 13.3275C11.534 13.2335 11.4048 13.1809 11.2702 13.1809C11.1357 13.1809 11.0064 13.2335 10.9102 13.3275C10.8139 13.4215 10.7581 13.5494 10.7549 13.684V17.9661C10.7555 18.3359 10.9027 18.6904 11.1642 18.9519C11.4256 19.2135 11.7801 19.3607 12.1499 19.3614C12.5398 19.3614 13.6083 19.3596 13.6083 19.3596V15.5812C13.6084 15.4701 13.5812 15.3607 13.5289 15.2627C13.4766 15.1647 13.4009 15.0812 13.3085 15.0195L12.0083 14.1364V16.1416C12.0091 16.1567 12.0068 16.1717 12.0016 16.1858C11.9964 16.1999 11.9884 16.2128 11.9781 16.2237C11.9677 16.2346 11.9552 16.2433 11.9414 16.2492C11.9276 16.2551 11.9127 16.2582 11.8977 16.2582C11.8827 16.2582 11.8678 16.2551 11.854 16.2492C11.8402 16.2433 11.8277 16.2346 11.8174 16.2237C11.807 16.2128 11.799 16.1999 11.7938 16.1858C11.7886 16.1717 11.7863 16.1567 11.7871 16.1416C11.7871 16.1202 11.7844 13.9486 11.7844 13.684H11.7856ZM12.4816 10.4892C12.3237 10.5257 12.1755 10.5958 12.0472 10.6948C11.9188 10.7938 11.8133 10.9192 11.7379 11.0627V10.7419L10.9861 10.9199V12.9762C11.1179 12.9242 11.2616 12.9096 11.4013 12.934C11.5409 12.9585 11.6711 13.021 11.7774 13.1147V11.7867C11.7774 11.4689 11.9362 11.2148 12.162 11.165C12.3325 11.1276 12.4743 11.1885 12.4743 11.4913V13.4286L13.266 13.2427V11.1937C13.266 10.6966 13.0752 10.3486 12.4813 10.4892H12.4816ZM23.9913 7.55709C23.8945 7.55715 23.7997 7.52848 23.7191 7.4747C23.6386 7.42093 23.5757 7.34446 23.5386 7.25498C23.5015 7.16549 23.4917 7.067 23.5105 6.97197C23.5294 6.87694 23.576 6.78963 23.6444 6.72108C23.7129 6.65253 23.8002 6.60582 23.8952 6.58686C23.9902 6.5679 24.0887 6.57754 24.1782 6.61456C24.2677 6.65159 24.3443 6.71432 24.3982 6.79484C24.452 6.87537 24.4808 6.97006 24.4809 7.06694C24.4806 7.19667 24.429 7.32102 24.3372 7.41273C24.2454 7.50444 24.1211 7.55602 23.9913 7.55618V7.55709ZM23.9913 6.63836C23.9066 6.63836 23.8239 6.66347 23.7534 6.71052C23.683 6.75756 23.6281 6.82443 23.5957 6.90267C23.5633 6.98091 23.5548 7.06701 23.5713 7.15008C23.5878 7.23315 23.6285 7.30946 23.6884 7.36937C23.7483 7.42928 23.8245 7.47009 23.9076 7.48665C23.9907 7.50321 24.0768 7.49477 24.155 7.4624C24.2333 7.43003 24.3002 7.37518 24.3473 7.30479C24.3944 7.2344 24.4196 7.15163 24.4196 7.06694C24.4195 6.95337 24.3743 6.8445 24.294 6.76417C24.2137 6.68384 24.1049 6.6386 23.9913 6.63836Z" fill="#231F20"/>
<path d="M23.8127 6.77588H24.024C24.1082 6.77588 24.1749 6.81783 24.1749 6.9292C24.1749 7.00677 24.1405 7.06653 24.0753 7.07679C24.1357 7.08283 24.1659 7.11542 24.1686 7.19963C24.1686 7.23736 24.1704 7.28444 24.1722 7.32036C24.1722 7.33061 24.1748 7.34071 24.1797 7.34969C24.1847 7.35866 24.1919 7.36623 24.2006 7.37166H24.0931C24.0823 7.35619 24.0766 7.33772 24.0768 7.31885C24.0732 7.28293 24.0738 7.24943 24.0726 7.20597C24.0726 7.14078 24.0512 7.1121 23.9854 7.1121H23.9096V7.37166H23.814L23.8127 6.77588ZM23.9845 7.04208C23.9975 7.04328 24.0105 7.04158 24.0228 7.03709C24.035 7.0326 24.0461 7.02545 24.0552 7.01614C24.0644 7.00684 24.0713 6.99562 24.0756 6.98329C24.0798 6.97097 24.0813 6.95785 24.0799 6.9449C24.0799 6.88121 24.0527 6.84801 23.9893 6.84801H23.9096V7.04208H23.9845Z" fill="#231F20"/>
</svg>
